<?xml version="1.0" encoding="UTF-8"?>
<svg width="15px" height="15px" viewBox="0 0 15 15" version="1.1" xmlns="http://www.w3.org/2000/svg" xmlns:xlink="http://www.w3.org/1999/xlink">
    <!-- Generator: Sketch 46.2 (44496) - http://www.bohemiancoding.com/sketch -->
    <title>icon-delete</title>
    <desc>Created with Sketch.</desc>
    <defs></defs>
    <g id="Page-1" stroke="none" stroke-width="1" fill="none" fill-rule="evenodd">
        <g id="CHECKOUT-Expanded" transform="translate(-296.000000, -123.000000)" fill="#D0021B">
            <g id="Group-5" transform="translate(10.000000, 89.000000)">
                <path d="M288.179688,36.2148438 C289.656257,34.7382739 291.43163,34 293.505859,34 C295.580088,34 297.349602,34.7324146 298.814453,36.1972656 C300.279304,37.6621167 301.011719,39.4257709 301.011719,41.4882812 C301.011719,43.5507916 300.279304,45.3144458 298.814453,46.7792969 C297.349602,48.2441479 295.580088,48.9765625 293.505859,48.9765625 C291.43163,48.9765625 289.662117,48.2441479 288.197266,46.7792969 C286.732415,45.3144458 286,43.5507916 286,41.4882812 C286,39.4257709 286.726555,37.667976 288.179688,36.2148438 Z M297.25,44.1953125 L294.542969,41.4882812 L297.25,38.78125 L296.195312,37.7265625 L293.488281,40.4335938 L290.816406,37.7265625 L289.761719,38.78125 L292.433594,41.4882812 L289.761719,44.1953125 L290.816406,45.25 L293.488281,42.5429688 L296.195312,45.25 L297.25,44.1953125 Z" id="icon-delete"></path>
            </g>
        </g>
    </g>
</svg>