<?xml version="1.0" encoding="UTF-8"?>
<svg width="12px" height="10px" viewBox="0 0 12 10" version="1.1" xmlns="http://www.w3.org/2000/svg" xmlns:xlink="http://www.w3.org/1999/xlink">
    <!-- Generator: Sketch 46.2 (44496) - http://www.bohemiancoding.com/sketch -->
    <title>icon-edit</title>
    <desc>Created with Sketch.</desc>
    <defs></defs>
    <g id="Page-1" stroke="none" stroke-width="1" fill="none" fill-rule="evenodd">
        <g id="CHECKOUT" transform="translate(-10.000000, -124.000000)" fill="#00A2E6">
            <g id="Group-5" transform="translate(10.000000, 89.000000)">
                <g id="Group-2">
                    <path d="M5.94643566,42.6428543 L6.7232223,41.8660677 L5.70536394,40.8482093 L4.9285773,41.624996 L4.9285773,41.9999964 L5.57143521,41.9999964 L5.57143521,42.6428543 L5.94643566,42.6428543 Z M8.89286774,37.82142 C8.83259981,37.7611521 8.73215327,37.7678485 8.67188534,37.8281165 L6.32813254,40.1718692 C6.26786461,40.2321372 6.26116818,40.3325837 6.32143611,40.3928517 C6.38170404,40.4531196 6.48215058,40.4464231 6.54241851,40.3861552 L8.88617131,38.0424024 C8.94643924,37.9821345 8.95313567,37.8816879 8.89286774,37.82142 Z M9.42858267,41.7991033 L9.42858267,43.0714263 C9.42858267,44.1361597 8.56474235,45 7.50000894,45 L1.92857373,45 C0.863840315,45 0,44.1361597 0,43.0714263 L0,37.4999911 C0,36.4352576 0.863840315,35.5714173 1.92857373,35.5714173 L7.50000894,35.5714173 C7.7678664,35.5714173 8.03572387,35.6249888 8.28349202,35.7388282 C8.34375995,35.765614 8.390635,35.8258819 8.40402788,35.8928463 C8.41742075,35.9665071 8.39733144,36.0334715 8.34375995,36.0870429 L8.01563456,36.4151683 C7.95536663,36.4754363 7.87500939,36.4955256 7.80134859,36.4687398 C7.70090204,36.4419541 7.60045549,36.4285612 7.50000894,36.4285612 L1.92857373,36.4285612 C1.33928731,36.4285612 0.857143879,36.9107046 0.857143879,37.4999911 L0.857143879,43.0714263 C0.857143879,43.6607127 1.33928731,44.1428561 1.92857373,44.1428561 L7.50000894,44.1428561 C8.08929536,44.1428561 8.57143879,43.6607127 8.57143879,43.0714263 L8.57143879,42.2276753 C8.57143879,42.1741038 8.5915281,42.1205323 8.63170672,42.0803537 L9.06027866,41.6517817 C9.12724302,41.5848174 9.2142967,41.5714245 9.29465394,41.6049067 C9.37501118,41.6383888 9.42858267,41.7120497 9.42858267,41.7991033 Z M8.78572476,36.8571332 L10.7142985,38.7857069 L6.21429312,43.2857122 L4.28571939,43.2857122 L4.28571939,41.3571385 L8.78572476,36.8571332 Z M11.7589426,37.7410628 L11.1428704,38.3571349 L9.2142967,36.4285612 L9.83036886,35.812489 C10.078137,35.5647209 10.4933161,35.5647209 10.7410842,35.812489 L11.7589426,36.8303474 C12.0067107,37.0781156 12.0067107,37.4932946 11.7589426,37.7410628 Z" id="icon-edit"></path>
                </g>
            </g>
        </g>
    </g>
</svg>