<?xml version="1.0" encoding="UTF-8"?>
<svg width="15px" height="15px" viewBox="0 0 15 15" version="1.1" xmlns="http://www.w3.org/2000/svg" xmlns:xlink="http://www.w3.org/1999/xlink">
    <!-- Generator: Sketch 46.2 (44496) - http://www.bohemiancoding.com/sketch -->
    <title>icon-all</title>
    <desc>Created with Sketch.</desc>
    <defs></defs>
    <g id="Page-1" stroke="none" stroke-width="1" fill="none" fill-rule="evenodd">
        <g id="MENU" transform="translate(-20.000000, -67.000000)" fill-rule="nonzero" fill="#C0CCD6">
            <g id="Group-7" transform="translate(20.000000, 67.000000)">
                <g id="Group-3">
                    <path d="M14.332936,9.42581737 L7.45337398,9.42581737 C7.36576189,9.42581737 7.29089881,9.35734175 7.2932481,9.27285865 C7.30655077,8.79315403 7.49117213,7.34998415 9.23069493,7.34998415 L12.5556151,7.34998415 C14.2919955,7.34998415 14.4787118,8.79313959 14.4928075,9.27285865 C14.4952765,9.35732731 14.4205481,9.42581737 14.332936,9.42581737 Z M8.8271855,8.50601543 C8.62258769,8.50601543 8.62258769,8.8120339 8.8271855,8.8120339 C9.03175338,8.8120339 9.03175338,8.50601543 8.8271855,8.50601543 Z M9.7683833,7.89396406 C9.56380045,7.89396406 9.56380045,8.19999696 9.7683833,8.19999696 C9.97296615,8.19998253 9.97296615,7.89396406 9.7683833,7.89396406 Z M10.8932448,7.89396406 C10.6886619,7.89396406 10.6886619,8.19999696 10.8932448,8.19999696 C11.0978426,8.19998253 11.0978426,7.89396406 10.8932448,7.89396406 Z M11.7988291,8.47541503 C11.5942313,8.47541503 11.5942313,8.78144793 11.7988291,8.78144793 C12.003412,8.78144793 12.003412,8.47541503 11.7988291,8.47541503 Z M12.5285159,7.83274882 C12.3239331,7.83274882 12.3239331,8.13878172 12.5285159,8.13878172 C12.7330988,8.13878172 12.7330988,7.83274882 12.5285159,7.83274882 Z M13.321858,8.47541503 C13.1172752,8.47541503 13.1172752,8.78144793 13.321858,8.78144793 C13.5264409,8.78144793 13.5264409,8.47541503 13.321858,8.47541503 Z M12.5556151,12.9237033 L9.23133837,12.9237033 C7.58696933,12.9237033 7.33198896,12.1047528 7.29778208,11.7574093 C7.28950719,11.6732871 7.36639036,11.604595 7.45398749,11.604595 L14.332936,11.604595 C14.4205481,11.604595 14.4972068,11.6732727 14.4886776,11.7573805 C14.4534831,12.1047239 14.1964976,12.9237033 12.5556151,12.9237033 Z M7.34478287,11.0453149 C7.0362626,11.0453149 6.78616037,10.8040624 6.78616037,10.5064591 C6.78616037,10.2088557 7.0362626,9.96760329 7.34478287,9.96760329 L14.4413775,9.96760329 C14.7498978,9.96760329 15,10.2088557 15,10.5064591 C15,10.8040624 14.7498978,11.0453149 14.4413775,11.0453149 L7.34478287,11.0453149 Z M0.460980123,5.62044933 C0.347831221,5.62044933 0.256084919,5.52870303 0.256084919,5.41555413 L0.256084919,4.69849396 C0.256084919,4.58534506 0.347831221,4.49359876 0.460980123,4.49359876 L7.08829906,4.49359876 C7.20144796,4.49359876 7.29319426,4.58534506 7.29319426,4.69849396 L7.29319426,5.41555413 C7.29319426,5.52870303 7.20144796,5.62044933 7.08829906,5.62044933 L0.460980123,5.62044933 Z M0.404223056,3.03796625 C0.204185439,3.05947842 0.0240529708,2.91524827 0.00217556845,2.71506456 C-0.0196287875,2.51488085 0.124930075,2.33489448 0.325113785,2.31301707 L2.41055251,2.08547748 C2.8506937,2.03744946 3.29156536,2.17941517 3.62096819,2.47485141 C3.95033449,2.77025113 4.13926905,3.19348208 4.13926905,3.63592424 L4.13926905,4.03946918 C4.13926905,4.04567812 4.13839249,4.0516314 4.13806378,4.0577673 L3.41125192,4.0577673 C3.41095973,4.0516314 3.41004665,4.04567812 3.41004665,4.03946918 L3.41004665,3.63592424 C3.41004665,3.39684331 3.31205488,3.17733882 3.13407729,3.01769587 C2.95609969,2.85808945 2.72735483,2.78445866 2.48962526,2.81042666 L0.404223056,3.03796625 Z M2.41066208,12.9237033 C1.95426806,12.9237033 1.56708552,12.5674559 1.52895528,12.1100758 L0.966205677,6.0051483 L6.5830735,6.0051483 L6.02010476,12.1126324 C5.98223019,12.5674559 5.59504765,12.9237033 5.13865362,12.9237033 L2.41066208,12.9237033 Z" id="Combined-Shape"></path>
                </g>
            </g>
        </g>
    </g>
</svg>